<?xml version="1.0" encoding="UTF-8" standalone="no"?>
<!DOCTYPE svg PUBLIC "-//W3C//DTD SVG 1.1//EN" "http://www.w3.org/Graphics/SVG/1.1/DTD/svg11.dtd">
<svg width="100%" height="100%" viewBox="0 0 4910 1150" version="1.1" xmlns="http://www.w3.org/2000/svg" xmlns:xlink="http://www.w3.org/1999/xlink" xml:space="preserve" xmlns:serif="http://www.serif.com/" style="fill-rule:evenodd;clip-rule:evenodd;stroke-linejoin:round;stroke-miterlimit:2;">
    <g transform="matrix(4.16667,0,0,4.16667,0,-296.875)">
        <rect x="195.804" y="105.803" width="27.016" height="135.644" style="fill:rgb(234,91,11);"/>
    </g>
    <g transform="matrix(4.16667,0,0,4.16667,0,-296.5)">
        <path d="M250.023,241.358L250.023,105.802L259.061,105.802L344.004,190.752L344.004,105.802L371.114,105.802L371.114,241.358L361.173,241.358L277.132,157.311L277.132,241.358L250.023,241.358Z" style="fill:rgb(234,91,11);fill-rule:nonzero;"/>
    </g>
    <g transform="matrix(4.16667,0,0,4.16667,0,-296.5)">
        <path d="M398.857,241.358L398.857,105.893L498.442,105.802L498.442,131.108L425.97,131.108L425.97,160.027L480.282,160.027L480.282,185.233L425.97,185.233L425.97,216.052L498.26,216.052L498.26,241.358L398.857,241.358Z" style="fill:rgb(234,91,11);fill-rule:nonzero;"/>
    </g>
    <g transform="matrix(4.16667,0,0,4.16667,0,-296.5)">
        <path d="M552.843,160.027L590.796,160.027C601.699,159.84 607.305,154.874 607.608,145.115C607.305,136.202 601.79,131.562 591.065,131.196L552.843,131.196L552.843,160.027ZM525.74,241.358L525.74,105.802L584.833,105.802C616.458,105.802 632.274,118.815 632.274,144.843C632.274,171.833 616.49,185.324 584.921,185.324L552.843,185.324L552.843,241.358L525.74,241.358Z" style="fill:rgb(87,87,86);fill-rule:nonzero;"/>
    </g>
    <g transform="matrix(4.16667,0,0,4.16667,0,-296.5)">
        <path d="M679.36,160.027L717.313,160.027C728.216,159.84 733.822,154.874 734.116,145.115C733.822,136.202 728.303,131.562 717.585,131.196L679.36,131.196L679.36,160.027ZM733.847,182.252L767.647,241.358L736.557,241.358L704.122,185.324L679.36,185.324L679.36,241.358L652.247,241.358L652.247,105.802L711.341,105.802C742.972,105.802 758.791,118.815 758.791,144.843C758.791,164.424 750.478,176.893 733.847,182.252" style="fill:rgb(87,87,86);fill-rule:nonzero;"/>
    </g>
    <g transform="matrix(4.16667,0,0,4.16667,0,-296.492)">
        <path d="M842.742,216.051C854.729,216.051 864.485,211.982 872.02,203.851C879.551,195.716 883.313,185.626 883.313,173.579C883.313,161.529 879.551,151.435 872.02,143.307C864.485,135.173 854.67,131.104 842.563,131.104C830.57,131.104 820.813,135.173 813.276,143.307C805.754,151.435 801.985,161.529 801.985,173.579C801.985,185.626 805.754,195.716 813.276,203.851C820.813,211.982 830.629,216.051 842.742,216.051M794.304,221.879C781.351,208.898 774.876,192.795 774.876,173.579C774.876,154.298 781.351,138.182 794.304,125.232C807.257,112.279 823.373,105.801 842.654,105.801C861.929,105.801 878.042,112.279 890.992,125.232C903.954,138.182 910.426,154.298 910.426,173.579C910.426,192.86 903.954,208.97 890.992,221.926C878.042,234.876 861.929,241.357 842.654,241.357C823.373,241.357 807.257,234.86 794.304,221.879" style="fill:rgb(87,87,86);fill-rule:nonzero;"/>
    </g>
    <g transform="matrix(4.16667,0,0,4.16667,0,-296.508)">
        <path d="M942.733,221.884C929.748,208.956 923.258,192.771 923.258,173.309C923.32,154.274 929.826,138.265 942.779,125.278C955.729,112.299 971.786,105.803 990.942,105.803C1010.28,105.803 1026.88,111.834 1040.74,123.878L1022.66,143.671C1013.44,136.44 1002.87,132.828 990.942,132.828C978.776,132.887 968.97,136.687 961.529,144.212C954.092,151.746 950.37,161.381 950.37,173.128C950.433,185.718 954.192,195.721 961.667,203.134C969.133,210.543 978.954,214.249 991.12,214.249C1000.88,214.249 1008.39,212.318 1013.63,208.462L1013.63,185.237L1013.65,185.328L1013.65,160.031L1040.74,160.031L1040.74,223.281C1026.94,235.337 1010.34,241.359 990.942,241.359C971.786,241.299 955.714,234.806 942.733,221.884" style="fill:rgb(87,87,86);fill-rule:nonzero;"/>
    </g>
    <g transform="matrix(4.16667,0,0,4.16667,0,-296.51)">
        <path d="M102.553,235.035C84.169,235.035 69.325,229.435 58.038,218.238C46.744,207.041 41.059,191.926 40.966,172.897C40.966,155.147 46.584,140.582 57.831,129.204C69.072,117.822 83.891,112.088 102.278,111.997C120.303,111.997 136.281,117.457 150.209,128.382L177.528,98.472C156.587,80.269 131.506,71.163 102.278,71.163C73.331,71.163 49.069,80.972 29.494,100.588C9.925,120.21 0.088,144.404 0,173.172C0,202.579 9.813,227.044 29.425,246.576C49.044,266.1 73.331,275.909 102.278,276C131.594,276 156.675,266.9 177.528,248.691L150.209,218.785C136.831,229.619 120.944,235.035 102.553,235.035" style="fill:rgb(234,91,11);fill-rule:nonzero;"/>
    </g>
    <g transform="matrix(0,4.16667,4.16667,0,-305.284,8.7675)">
        <path d="M100.318,141.904C117.808,141.904 131.989,156.091 131.989,173.585C131.989,191.069 117.808,205.26 100.318,205.26C82.821,205.26 68.639,191.069 68.639,173.585C68.639,156.091 82.821,141.904 100.318,141.904" style="fill:rgb(234,91,11);fill-rule:nonzero;"/>
    </g>
    <g transform="matrix(4.16667,0,0,4.16667,0,1107.27)">
        <path d="M404.218,9.687L404.133,9.687C401.908,9.687 400.165,7.721 400.165,5.212C400.165,2.565 402.015,0.568 404.471,0.568C406.855,0.568 408.521,2.409 408.521,5.043C408.521,7.69 406.671,9.687 404.218,9.687" style="fill:rgb(157,156,156);fill-rule:nonzero;"/>
    </g>
    <g transform="matrix(4.16667,0,0,4.16667,0,1107.27)">
        <path d="M419.413,9.687L419.325,9.687C417.097,9.687 415.353,7.721 415.353,5.212C415.353,2.565 417.206,0.568 419.663,0.568C422.047,0.568 423.713,2.409 423.713,5.043C423.713,7.69 421.866,9.687 419.413,9.687" style="fill:rgb(157,156,156);fill-rule:nonzero;"/>
    </g>
    <g transform="matrix(4.16667,0,0,4.16667,0,1107.27)">
        <path d="M434.598,9.687L434.517,9.687C432.289,9.687 430.545,7.721 430.545,5.212C430.545,2.565 432.395,0.568 434.848,0.568C437.236,0.568 438.904,2.409 438.904,5.043C438.904,7.69 437.054,9.687 434.598,9.687" style="fill:rgb(157,156,156);fill-rule:nonzero;"/>
    </g>
    <g transform="matrix(4.16667,0,0,4.16667,0,959.305)">
        <path d="M501.902,44.274L496.536,44.274L501.239,19.343C501.483,17.88 501.811,15.718 501.811,14.021C501.811,8.69 499.836,6.418 495.208,6.418C489.823,6.418 482.945,12.465 481.286,21.468L477.052,44.274L471.677,44.274L476.645,18.746C476.992,16.73 477.133,15.29 477.133,13.774C477.133,8.687 475.067,6.418 470.442,6.418C465.317,6.418 457.889,13.393 456.352,22.055L452.202,44.274L446.83,44.274L452.633,13.874C453.402,9.777 453.902,6.162 454.308,3.093L454.395,2.415L459.514,2.415L458.552,8.665C462.261,4.018 466.973,1.493 472.036,1.493C477.445,1.493 480.945,4.487 481.895,9.793C485.627,4.437 490.598,1.646 496.698,1.493C500.358,1.493 507.239,3.83 507.239,12.684C507.239,14.587 506.998,17.049 506.558,19.615L501.902,44.274Z" style="fill:rgb(157,156,156);fill-rule:nonzero;"/>
    </g>
    <g transform="matrix(4.16667,0,0,4.16667,0,963.156)">
        <path d="M540.77,5.404C528.992,5.404 518.97,16.66 518.886,29.982C518.845,32.345 519.211,35.573 521.18,37.579C522.389,38.81 524.092,39.432 526.245,39.432C533.217,39.432 541.095,29.963 543.114,19.173L545.664,5.854C544.683,5.62 543.136,5.404 540.77,5.404M525.411,44.276C518.327,44.276 513.38,38.673 513.38,30.651C513.38,16.123 524.655,0.567 541.442,0.567C544.677,0.567 548.361,1.029 551.058,1.77L551.755,1.96L547.583,23.657C546.195,30.738 545.542,37.788 545.833,42.52L545.883,43.351L540.605,43.351L540.577,42.595C540.52,40.826 540.739,38.007 541.236,34.188C537.005,40.967 531.802,44.276 525.411,44.276" style="fill:rgb(157,156,156);fill-rule:nonzero;"/>
    </g>
    <g transform="matrix(4.16667,0,0,4.16667,0,962.795)">
        <path d="M571.234,44.276C559.888,44.276 555.847,36.154 555.847,28.557C555.847,15.082 565.706,0.654 580.388,0.654C584.319,0.654 588.281,2.044 589.391,3.044L589.8,3.416L587.909,7.897L587.156,7.501C584.913,6.319 582.506,5.741 579.8,5.741C568.766,5.741 561.353,17.229 561.353,27.957C561.353,33.197 563.184,39.441 571.909,39.441C576.4,39.441 579.962,37.866 581.688,36.932L582.5,36.488L584.112,41.201L583.516,41.507C581.916,42.341 577.513,44.276 571.234,44.276" style="fill:rgb(157,156,156);fill-rule:nonzero;"/>
    </g>
    <g transform="matrix(4.16667,0,0,4.16667,0,882.703)">
        <path d="M622.325,62.658L616.957,62.658L621.666,37.637C621.885,36.749 622.238,34.887 622.238,31.905C622.238,29.255 621.347,24.802 615.382,24.802C609.522,24.802 601.71,31.599 600.028,40.699L595.966,62.658L590.597,62.658L602.222,1.493L607.685,1.493L602.678,26.849C606.447,22.274 611.31,19.877 616.894,19.877C620.863,19.877 627.582,22.302 627.582,31.399C627.582,33.502 627.366,35.877 626.982,38.087L622.325,62.658Z" style="fill:rgb(157,156,156);fill-rule:nonzero;"/>
    </g>
    <g transform="matrix(4.16667,0,0,4.16667,0,927.781)">
        <path d="M645.253,52.679C639.356,52.679 637.253,48.504 637.253,44.595C637.253,42.31 637.534,39.982 638.194,36.801L642.462,14.648L636.334,14.648L637.219,9.982L643.425,9.982L644.731,2.794L650.553,0.654L648.8,9.982L659.041,9.982L658.159,14.648L647.828,14.648L643.584,37.263C643.116,39.776 642.762,41.901 642.762,44.426C642.762,46.729 643.825,47.845 646.006,47.845C647.034,47.845 648.194,47.804 648.987,47.482L649.944,47.095L650.462,51.738L649.9,51.957C648.706,52.416 647.016,52.679 645.253,52.679" style="fill:rgb(157,156,156);fill-rule:nonzero;"/>
    </g>
    <g transform="matrix(4.16667,0,0,4.16667,0,882.703)">
        <path d="M678.883,62.658L673.508,62.658L673.69,61.73L685.227,1.493L690.596,1.493L690.418,2.421L678.883,62.658Z" style="fill:rgb(157,156,156);fill-rule:nonzero;"/>
    </g>
    <g transform="matrix(4.16667,0,0,4.16667,0,967.01)">
        <path d="M704.168,43.349C699.83,43.349 692.558,41.699 692.558,30.649C692.558,28.877 692.796,26.865 693.327,24.118L697.808,0.568L703.183,0.568L698.643,24.496C698.105,27.153 697.896,28.874 697.896,30.649C697.896,35.899 700.155,38.346 705.005,38.346C710.496,38.346 717.871,31.831 719.514,23.109L723.839,0.568L729.205,0.568L723.405,30.962C722.714,34.652 722.183,38.271 721.821,41.724L721.749,42.424L716.602,42.424L717.558,36.152C713.936,40.596 708.911,43.349 704.168,43.349" style="fill:rgb(157,156,156);fill-rule:nonzero;"/>
    </g>
    <g transform="matrix(4.16667,0,0,4.16667,0,962.795)">
        <path d="M741.008,44.276C737.005,44.276 733.571,42.919 731.946,41.572L731.489,41.197L733.455,36.679L734.239,37.229C735.808,38.332 738.611,39.441 741.343,39.441C746.161,39.441 749.799,36.166 749.799,31.829C749.799,28.197 748.386,26.119 744.214,23.594C738.561,20.204 737.374,15.929 737.374,12.938C737.374,6.051 743.249,0.654 750.749,0.654C753.943,0.654 757.03,1.704 758.43,2.738L758.936,3.113L756.88,7.707L756.114,7.213C754.824,6.379 752.627,5.491 750.33,5.491C745.986,5.491 742.711,8.438 742.711,12.351C742.711,15.769 744.568,17.551 748.224,19.829C752.736,22.585 755.224,26.488 755.224,30.813C755.224,39.654 748.074,44.276 741.008,44.276" style="fill:rgb(157,156,156);fill-rule:nonzero;"/>
    </g>
    <g transform="matrix(4.16667,0,0,4.16667,0,927.781)">
        <path d="M773.662,52.679C767.762,52.679 765.662,48.504 765.662,44.595C765.662,42.316 765.94,39.988 766.596,36.801L770.874,14.648L764.749,14.648L765.618,9.982L771.834,9.982L773.137,2.794L778.962,0.654L777.202,9.982L787.443,9.982L786.565,14.648L776.231,14.648L771.99,37.263C771.524,39.776 771.168,41.901 771.168,44.426C771.168,46.757 772.199,47.845 774.415,47.845C775.446,47.845 776.602,47.804 777.393,47.482L778.349,47.095L778.868,51.738L778.306,51.957C777.112,52.416 775.418,52.679 773.662,52.679" style="fill:rgb(157,156,156);fill-rule:nonzero;"/>
    </g>
    <g transform="matrix(4.16667,0,0,4.16667,0,963.156)">
        <path d="M829.216,5.404C817.435,5.404 807.413,16.66 807.335,29.982C807.288,32.342 807.651,35.56 809.619,37.573C810.832,38.807 812.541,39.432 814.698,39.432C821.666,39.432 829.548,29.963 831.563,19.173L834.107,5.854C833.129,5.62 831.582,5.404 829.216,5.404M813.857,44.276C806.773,44.276 801.826,38.673 801.826,30.651C801.826,16.123 813.107,0.567 829.894,0.567C833.123,0.567 836.807,1.029 839.504,1.77L840.201,1.96L836.035,23.657C834.644,30.745 833.988,37.795 834.285,42.52L834.335,43.351L829.051,43.351L829.026,42.592C828.969,40.82 829.191,37.998 829.685,34.176C825.46,40.963 820.257,44.276 813.857,44.276" style="fill:rgb(157,156,156);fill-rule:nonzero;"/>
    </g>
    <g transform="matrix(4.16667,0,0,4.16667,0,967.01)">
        <path d="M857.497,43.349C853.159,43.349 845.884,41.699 845.884,30.649C845.884,28.906 846.122,26.89 846.656,24.121L851.147,0.568L856.513,0.568L851.972,24.496C851.438,27.146 851.231,28.868 851.231,30.649C851.231,35.899 853.491,38.346 858.334,38.346C863.828,38.346 871.206,31.831 872.853,23.106L877.169,0.568L882.534,0.568L876.731,30.962C876.041,34.693 875.506,38.318 875.15,41.724L875.078,42.424L869.941,42.424L870.881,36.165C867.272,40.599 862.253,43.349 857.497,43.349" style="fill:rgb(157,156,156);fill-rule:nonzero;"/>
    </g>
    <g transform="matrix(4.16667,0,0,4.16667,0,878.849)">
        <path d="M892.641,63.583L887.272,63.583L894.319,26.393L888.866,26.393L889.747,21.724L895.294,21.724L895.585,20.171C896.694,13.483 899.007,8.255 902.275,5.074C904.747,2.793 907.972,1.493 911.138,1.493C914.363,1.493 916,2.258 916.685,2.715L917.203,3.062L915.491,7.58L914.707,7.155C913.803,6.671 912.482,6.415 910.878,6.415C905.688,6.415 902.491,10.955 900.816,20.702L900.641,21.724L910.335,21.724L909.332,26.393L899.691,26.393L892.641,63.583Z" style="fill:rgb(157,156,156);fill-rule:nonzero;"/>
    </g>
    <g transform="matrix(4.16667,0,0,4.16667,0,900.893)">
        <path d="M935.631,9.852L935.553,9.852C933.493,9.852 931.997,8.108 931.997,5.712C932.106,3.29 933.815,1.493 935.965,1.493C938.156,1.493 939.684,3.227 939.684,5.712C939.453,8.218 937.825,9.852 935.631,9.852M928.478,58.293L923.097,58.293L931.125,16.437L936.497,16.437L936.318,17.362L928.478,58.293Z" style="fill:rgb(157,156,156);fill-rule:nonzero;"/>
    </g>
    <g transform="matrix(4.16667,0,0,4.16667,0,882.703)">
        <path d="M972.121,62.658L966.749,62.658L971.462,37.637C971.68,36.749 972.037,34.893 972.037,31.905C972.037,29.255 971.146,24.802 965.174,24.802C959.315,24.802 951.502,31.599 949.821,40.699L945.765,62.658L940.396,62.658L952.021,1.493L957.48,1.493L952.465,26.858C956.24,22.277 961.105,19.877 966.69,19.877C970.655,19.877 977.374,22.302 977.374,31.399C977.374,33.521 977.158,35.896 976.774,38.087L972.121,62.658Z" style="fill:rgb(157,156,156);fill-rule:nonzero;"/>
    </g>
    <g transform="matrix(4.16667,0,0,4.16667,0,959.305)">
        <path d="M989.064,44.274L983.692,44.274L989.08,16.149C989.899,11.543 990.571,7.149 991.08,3.099L991.164,2.415L996.214,2.415L996.077,3.315C995.927,4.315 995.786,5.312 995.646,6.334C995.549,7.046 995.449,7.768 995.343,8.508C998.233,4.005 1002.07,1.493 1006.22,1.493C1006.84,1.493 1007.74,1.574 1008.23,1.674L1008.98,1.834L1007.92,7.221L1007.15,7.068C1006.65,6.965 1006.09,6.918 1005.46,6.918C1000.97,6.918 994.705,13.965 992.883,24.071L989.064,44.274Z" style="fill:rgb(157,156,156);fill-rule:nonzero;"/>
    </g>
    <g transform="matrix(4.16667,0,0,4.16667,0,882.703)">
        <path d="M1053,62.658L1047.12,62.658L1036.02,41.612L1031.43,45.499L1028.26,62.658L1022.88,62.658L1034.52,1.493L1039.89,1.493L1032.86,38.496C1033.53,37.846 1034.2,37.224 1034.77,36.705L1035.14,36.374L1051.99,20.799L1058.99,20.799L1040.08,38.283L1053,62.658Z" style="fill:rgb(157,156,156);fill-rule:nonzero;"/>
    </g>
    <g transform="matrix(4.16667,0,0,4.16667,0,900.893)">
        <path d="M1070.58,9.852L1070.5,9.852C1068.44,9.852 1066.94,8.108 1066.94,5.712C1067.06,3.29 1068.77,1.493 1070.91,1.493C1073.11,1.493 1074.64,3.227 1074.64,5.712C1074.41,8.218 1072.78,9.852 1070.58,9.852M1063.42,58.293L1058.05,58.293L1066.07,16.437L1071.44,16.437L1071.26,17.362L1063.42,58.293Z" style="fill:rgb(157,156,156);fill-rule:nonzero;"/>
    </g>
    <g transform="matrix(4.16667,0,0,4.16667,0,959.305)">
        <path d="M1107.08,44.274L1101.71,44.274L1106.48,18.965C1106.72,17.405 1106.99,15.64 1106.99,14.021C1106.99,8.905 1104.72,6.418 1100.05,6.418C1094.96,6.418 1086.54,12.315 1084.61,22.98L1080.72,44.274L1075.34,44.274L1081.06,13.877C1081.89,9.902 1082.38,6.371 1082.82,3.093L1082.91,2.415L1088.02,2.415L1087.07,8.955C1090.81,4.233 1096.06,1.493 1101.56,1.493C1106.57,1.493 1112.41,4.64 1112.41,13.521C1112.41,15.162 1112.17,17.237 1111.64,20.046L1107.08,44.274Z" style="fill:rgb(157,156,156);fill-rule:nonzero;"/>
    </g>
    <g transform="matrix(4.16667,0,0,4.16667,0,963.156)">
        <path d="M1140.58,5.404C1130.86,5.404 1124.32,16.417 1124.32,26.701C1124.32,34.198 1128.69,39.432 1134.95,39.432C1143.32,39.432 1151.14,29.082 1151.14,18.138C1151.14,13.41 1148.91,5.404 1140.58,5.404M1134.62,44.276L1134.53,44.276C1123.73,44.276 1118.81,35.338 1118.81,27.038C1118.81,14.254 1127.69,0.567 1140.92,0.567C1152.52,0.567 1156.64,10.079 1156.64,18.226C1156.64,28.873 1148.8,44.276 1134.62,44.276" style="fill:rgb(157,156,156);fill-rule:nonzero;"/>
    </g>
    <g transform="matrix(4.16667,0,0,4.16667,0,899.138)">
        <path d="M1168.82,43.855L1163.98,43.855L1171.64,0.567L1177.97,0.567L1168.82,43.855ZM1164.07,59.639L1163.99,59.639C1161.76,59.639 1160.02,57.674 1160.02,55.164C1160.02,52.561 1161.91,50.521 1164.33,50.521C1166.71,50.521 1168.38,52.361 1168.38,54.993C1168.38,57.643 1166.53,59.639 1164.07,59.639" style="fill:rgb(157,156,156);fill-rule:nonzero;"/>
    </g>
    <g transform="matrix(4.16667,0,0,4.16667,0,0)">
        <g opacity="0.3">
            <g transform="matrix(1,0,0,1,0,15.6)">
                <path d="M195.807,154.589L222.826,154.589L222.826,109.167C213.642,108.089 204.638,106.97 195.807,105.811L195.807,154.589Z" style="fill:white;fill-rule:nonzero;"/>
            </g>
            <g transform="matrix(1,0,0,1,0,21.953)">
                <path d="M250.028,148.236L277.131,148.236L277.131,108.455C267.959,107.611 258.922,106.73 250.028,105.811L250.028,148.236Z" style="fill:white;fill-rule:nonzero;"/>
            </g>
            <g transform="matrix(1,0,0,1,0,28.525)">
                <path d="M361.176,141.664L371.119,141.664L371.119,108.704C355.582,107.851 340.297,106.886 325.322,105.811L361.176,141.664Z" style="fill:white;fill-rule:nonzero;"/>
            </g>
            <g transform="matrix(1,0,0,1,0,32.809)">
                <path d="M425.971,106.917C416.855,106.589 407.817,106.217 398.858,105.811L398.858,137.38L498.258,137.38L498.258,112.077L425.971,112.077L425.971,106.917Z" style="fill:white;fill-rule:nonzero;"/>
            </g>
            <g transform="matrix(1,0,0,1,0,35.961)">
                <path d="M525.737,105.81L525.737,134.229L552.847,134.229L552.847,105.826C549.222,105.835 545.603,105.851 541.962,105.851C536.537,105.851 531.128,105.835 525.737,105.81" style="fill:white;fill-rule:nonzero;"/>
            </g>
            <g transform="matrix(1,0,0,1,0,33.065)">
                <path d="M652.254,137.124L679.36,137.124L679.36,105.811C670.401,106.199 661.367,106.552 652.254,106.861L652.254,137.124Z" style="fill:white;fill-rule:nonzero;"/>
            </g>
            <g transform="matrix(0.501012,0.865441,0.865441,-0.501012,263.742,-428.137)">
                <path d="M716.331,109.429L754.704,109.429L770.282,136.338L729.867,136.553C725.454,127.589 720.944,118.551 716.331,109.429" style="fill:white;fill-rule:nonzero;"/>
            </g>
            <g transform="matrix(1,0,0,1,0,12.777)">
                <path d="M872.023,119.921C864.492,128.055 854.733,132.118 842.745,132.118C830.636,132.118 820.808,128.055 813.276,119.921C812.483,119.062 811.745,118.162 811.029,117.252C801.32,118.159 791.336,119.059 781.336,119.865C784.658,126.555 788.839,132.474 794.308,137.952C807.258,150.934 823.373,157.421 842.658,157.421C861.933,157.421 878.048,150.946 890.998,137.996C900.142,128.852 905.995,118.109 908.779,105.802C899.117,107.193 889.089,108.537 878.958,109.821C877.186,113.471 874.873,116.84 872.023,119.921" style="fill:white;fill-rule:nonzero;"/>
            </g>
            <g transform="matrix(1,0,0,1,0,8.7185)">
                <path d="M102.555,155.147C84.167,155.147 69.323,149.547 58.039,138.353C46.748,127.153 41.058,112.037 40.967,93.012C40.967,89.875 41.039,86.812 41.492,83.837C26.883,79.756 13.764,75.597 2.195,71.162C0.773,78.212 0.027,85.575 0.002,93.287C0.002,122.687 9.811,147.159 29.427,166.69C49.045,186.213 73.336,196.019 102.283,196.119C131.595,196.119 156.677,187.013 177.53,168.803L150.214,138.9C136.836,149.734 120.942,155.147 102.555,155.147" style="fill:white;fill-rule:nonzero;"/>
            </g>
            <g transform="matrix(0.737593,-0.675246,-0.675246,-0.737593,133.579,301.466)">
                <path d="M88.487,145.915C98.893,136.388 113.946,135.133 125.579,141.777C111.762,159.65 99.355,176.656 88.487,192.621C87.811,192.003 87.141,191.359 86.507,190.667C74.697,177.766 75.583,157.728 88.487,145.915" style="fill:white;fill-rule:nonzero;"/>
            </g>
            <g transform="matrix(1,0,0,1,0,-16.949)">
                <path d="M1013.65,105.812L1013.65,131.112L1013.63,131.021L1013.63,154.246C1008.39,158.102 1000.88,160.03 991.121,160.03C978.952,160.03 969.137,156.324 961.665,148.918C956.265,143.555 952.827,136.827 951.302,128.765C942.624,130.277 933.662,131.743 924.496,133.155C926.943,146.493 933.021,157.996 942.733,167.668C955.715,180.59 971.787,187.08 990.943,187.137C1010.35,187.137 1026.94,181.118 1040.74,169.065L1040.74,105.812L1013.65,105.812Z" style="fill:white;fill-rule:nonzero;"/>
            </g>
        </g>
    </g>
</svg>
