<?xml version="1.0" encoding="UTF-8" standalone="no"?>
<!DOCTYPE svg PUBLIC "-//W3C//DTD SVG 1.1//EN" "http://www.w3.org/Graphics/SVG/1.1/DTD/svg11.dtd">
<svg width="100%" height="100%" viewBox="0 0 4910 1150" version="1.1" xmlns="http://www.w3.org/2000/svg" xmlns:xlink="http://www.w3.org/1999/xlink" xml:space="preserve" xmlns:serif="http://www.serif.com/" style="fill-rule:evenodd;clip-rule:evenodd;stroke-linejoin:round;stroke-miterlimit:2;">
    <g transform="matrix(4.16667,0,0,4.16667,0,-296.858)">
        <rect x="195.806" y="105.801" width="27.019" height="135.644" style="fill:rgb(234,91,11);"/>
    </g>
    <g transform="matrix(4.16667,0,0,4.16667,0,-296.5)">
        <path d="M250.023,241.358L250.023,105.802L259.061,105.802L344.005,190.755L344.005,105.802L371.114,105.802L371.114,241.358L361.17,241.358L277.133,157.312L277.133,241.358L250.023,241.358Z" style="fill:rgb(234,91,11);fill-rule:nonzero;"/>
    </g>
    <g transform="matrix(4.16667,0,0,4.16667,0,-296.5)">
        <path d="M398.857,241.358L398.857,105.893L498.439,105.802L498.439,131.108L425.97,131.108L425.97,160.03L480.282,160.03L480.282,185.237L425.97,185.237L425.97,216.052L498.261,216.052L498.261,241.358L398.857,241.358Z" style="fill:rgb(234,91,11);fill-rule:nonzero;"/>
    </g>
    <g transform="matrix(4.16667,0,0,4.16667,0,-296.508)">
        <path d="M552.843,160.031L590.796,160.031C601.699,159.84 607.306,154.878 607.609,145.122C607.306,136.203 601.79,131.565 591.065,131.197L552.843,131.197L552.843,160.031ZM525.74,241.359L525.74,105.803L584.834,105.803C616.459,105.803 632.274,118.819 632.274,144.847C632.274,171.834 616.49,185.328 584.921,185.328L552.843,185.328L552.843,241.359L525.74,241.359Z" style="fill:rgb(236,236,236);fill-rule:nonzero;"/>
    </g>
    <g transform="matrix(4.16667,0,0,4.16667,0,-296.508)">
        <path d="M679.36,160.031L717.313,160.031C728.216,159.84 733.822,154.878 734.116,145.122C733.822,136.203 728.304,131.565 717.585,131.197L679.36,131.197L679.36,160.031ZM733.851,182.253L767.647,241.359L736.557,241.359L704.122,185.328L679.36,185.328L679.36,241.359L652.247,241.359L652.247,105.803L711.341,105.803C742.972,105.803 758.791,118.819 758.791,144.847C758.791,164.425 750.479,176.894 733.851,182.253" style="fill:rgb(236,236,236);fill-rule:nonzero;"/>
    </g>
    <g transform="matrix(4.16667,0,0,4.16667,0,-296.492)">
        <path d="M842.742,216.051C854.729,216.051 864.486,211.982 872.02,203.851C879.551,195.717 883.314,185.626 883.314,173.579C883.314,161.529 879.551,151.436 872.02,143.311C864.486,135.173 854.67,131.104 842.564,131.104C830.57,131.104 820.814,135.173 813.276,143.311C805.754,151.436 801.986,161.529 801.986,173.579C801.986,185.626 805.754,195.717 813.276,203.851C820.814,211.982 830.629,216.051 842.742,216.051M794.304,221.879C781.351,208.898 774.876,192.795 774.876,173.579C774.876,154.298 781.351,138.182 794.304,125.232C807.257,112.276 823.373,105.801 842.654,105.801C861.929,105.801 878.042,112.276 890.992,125.232C903.954,138.182 910.426,154.298 910.426,173.579C910.426,192.857 903.954,208.97 890.992,221.926C878.042,234.876 861.929,241.357 842.654,241.357C823.373,241.357 807.257,234.861 794.304,221.879" style="fill:rgb(236,236,236);fill-rule:nonzero;"/>
    </g>
    <g transform="matrix(4.16667,0,0,4.16667,0,-296.496)">
        <path d="M942.733,221.881C929.748,208.953 923.261,192.768 923.261,173.306C923.32,154.272 929.826,138.262 942.779,125.275C955.729,112.297 971.786,105.8 990.942,105.8C1010.28,105.8 1026.88,111.831 1040.74,123.878L1022.66,143.668C1013.44,136.437 1002.87,132.825 990.942,132.825C978.776,132.887 968.973,136.681 961.529,144.209C954.092,151.743 950.37,161.378 950.37,173.125C950.433,185.718 954.192,195.718 961.667,203.131C969.133,210.54 978.954,214.247 991.12,214.247C1000.88,214.247 1008.39,212.318 1013.63,208.459L1013.63,185.234L1013.65,185.325L1013.65,160.028L1040.74,160.028L1040.74,223.278C1026.94,235.334 1010.34,241.359 990.942,241.359C971.786,241.297 955.714,234.803 942.733,221.881" style="fill:rgb(236,236,236);fill-rule:nonzero;"/>
    </g>
    <g transform="matrix(4.16667,0,0,4.16667,0,-296.51)">
        <path d="M102.553,235.035C84.169,235.035 69.325,229.435 58.038,218.238C46.744,207.041 41.059,191.926 40.966,172.897C40.966,155.151 46.584,140.582 57.831,129.204C69.072,117.822 83.891,112.085 102.278,111.997C120.303,111.997 136.281,117.457 150.209,128.379L177.528,98.472C156.587,80.269 131.506,71.163 102.278,71.163C73.331,71.163 49.069,80.972 29.494,100.588C9.925,120.21 0.091,144.404 0,173.172C0,202.579 9.813,227.044 29.425,246.576C49.047,266.1 73.331,275.909 102.278,276C131.597,276 156.675,266.9 177.528,248.691L150.209,218.785C136.831,229.619 120.944,235.035 102.553,235.035" style="fill:rgb(234,91,11);fill-rule:nonzero;"/>
    </g>
    <g transform="matrix(0,4.16667,4.16667,0,-305.286,8.76479)">
        <path d="M100.318,141.904C117.809,141.904 131.99,156.092 131.99,173.586C131.99,191.071 117.809,205.261 100.318,205.261C82.821,205.261 68.637,191.071 68.637,173.586C68.637,156.092 82.821,141.904 100.318,141.904" style="fill:rgb(234,91,11);fill-rule:nonzero;"/>
    </g>
    <g transform="matrix(4.16667,0,0,4.16667,0,1107.27)">
        <path d="M404.219,9.687L404.135,9.687C401.907,9.687 400.163,7.721 400.163,5.212C400.163,2.565 402.013,0.568 404.469,0.568C406.857,0.568 408.523,2.409 408.523,5.043C408.523,7.69 406.673,9.687 404.219,9.687" style="fill:rgb(157,156,156);fill-rule:nonzero;"/>
    </g>
    <g transform="matrix(4.16667,0,0,4.16667,0,1107.27)">
        <path d="M419.411,9.687L419.327,9.687C417.099,9.687 415.352,7.721 415.352,5.212C415.352,2.609 417.246,0.568 419.661,0.568C422.049,0.568 423.714,2.409 423.714,5.043C423.714,7.69 421.864,9.687 419.411,9.687" style="fill:rgb(157,156,156);fill-rule:nonzero;"/>
    </g>
    <g transform="matrix(4.16667,0,0,4.16667,0,1107.27)">
        <path d="M434.597,9.687L434.518,9.687C432.29,9.687 430.543,7.721 430.543,5.212C430.543,2.565 432.393,0.568 434.85,0.568C437.237,0.568 438.906,2.409 438.906,5.043C438.906,7.69 437.053,9.687 434.597,9.687" style="fill:rgb(157,156,156);fill-rule:nonzero;"/>
    </g>
    <g transform="matrix(4.16667,0,0,4.16667,0,959.308)">
        <path d="M501.9,44.274L496.534,44.274L501.244,19.339C501.506,17.755 501.809,15.699 501.809,14.021C501.809,8.693 499.834,6.418 495.209,6.418C489.825,6.418 482.944,12.464 481.284,21.471L477.05,44.274L471.678,44.274L476.647,18.746C476.991,16.73 477.131,15.286 477.131,13.774C477.131,8.686 475.069,6.418 470.444,6.418C465.319,6.418 457.891,13.393 456.35,22.055L452.2,44.274L446.831,44.274L452.634,13.874C453.372,9.946 453.872,6.371 454.306,3.096L454.394,2.414L459.516,2.414L458.553,8.664C462.262,4.017 466.972,1.492 472.034,1.492C477.444,1.492 480.947,4.486 481.897,9.793C485.628,4.436 490.597,1.646 496.7,1.492C500.356,1.492 507.241,3.83 507.241,12.683C507.241,14.574 506.997,17.036 506.559,19.614L501.9,44.274Z" style="fill:rgb(157,156,156);fill-rule:nonzero;"/>
    </g>
    <g transform="matrix(4.16667,0,0,4.16667,0,963.159)">
        <path d="M540.77,5.404C528.992,5.404 518.97,16.66 518.886,29.982C518.845,32.347 519.211,35.572 521.183,37.579C522.389,38.807 524.095,39.432 526.248,39.432C533.217,39.432 541.098,29.963 543.114,19.172L545.661,5.851C544.686,5.619 543.139,5.404 540.77,5.404M525.411,44.276C518.327,44.276 513.38,38.672 513.38,30.651C513.38,16.122 524.658,0.566 541.445,0.566C544.677,0.566 548.361,1.029 551.058,1.769L551.755,1.96L547.583,23.657C546.198,30.738 545.542,37.791 545.833,42.519L545.883,43.351L540.605,43.351L540.58,42.594C540.517,40.81 540.733,38.041 541.233,34.188C537.005,40.966 531.802,44.276 525.411,44.276" style="fill:rgb(157,156,156);fill-rule:nonzero;"/>
    </g>
    <g transform="matrix(4.16667,0,0,4.16667,0,962.797)">
        <path d="M571.236,44.275C559.889,44.275 555.845,36.153 555.845,28.557C555.845,15.082 565.705,0.653 580.389,0.653C584.32,0.653 588.28,2.044 589.389,3.041L589.802,3.413L587.908,7.897L587.158,7.5C584.914,6.316 582.508,5.741 579.798,5.741C568.767,5.741 561.355,17.228 561.355,27.957C561.355,33.197 563.186,39.441 571.908,39.441C576.402,39.441 579.967,37.869 581.692,36.928L582.502,36.488L584.111,41.197L583.517,41.507C581.914,42.341 577.508,44.275 571.236,44.275" style="fill:rgb(157,156,156);fill-rule:nonzero;"/>
    </g>
    <g transform="matrix(4.16667,0,0,4.16667,0,882.706)">
        <path d="M622.326,62.658L616.957,62.658L621.666,37.636C621.885,36.749 622.238,34.886 622.238,31.905C622.238,29.252 621.344,24.802 615.382,24.802C609.523,24.802 601.71,31.599 600.029,40.696L595.966,62.658L590.598,62.658L602.223,1.493L607.682,1.493L602.679,26.849C606.448,22.274 611.31,19.877 616.894,19.877C620.863,19.877 627.582,22.302 627.582,31.399C627.582,33.499 627.366,35.874 626.982,38.086L622.326,62.658Z" style="fill:rgb(157,156,156);fill-rule:nonzero;"/>
    </g>
    <g transform="matrix(4.16667,0,0,4.16667,0,927.784)">
        <path d="M645.253,52.678C639.357,52.678 637.253,48.503 637.253,44.594C637.253,42.31 637.535,39.978 638.194,36.8L642.463,14.647L636.335,14.647L637.219,9.982L643.425,9.982L644.732,2.797L650.553,0.653L648.8,9.982L659.041,9.982L658.16,14.647L647.828,14.647L643.585,37.263C643.116,39.778 642.763,41.9 642.763,44.425C642.763,46.725 643.825,47.844 646.007,47.844C647.035,47.844 648.194,47.8 648.988,47.478L649.944,47.094L650.463,51.738L649.9,51.957C648.707,52.413 647.016,52.678 645.253,52.678" style="fill:rgb(157,156,156);fill-rule:nonzero;"/>
    </g>
    <g transform="matrix(4.16667,0,0,4.16667,0,882.706)">
        <path d="M678.884,62.658L673.509,62.658L673.69,61.73L685.227,1.493L690.596,1.493L690.415,2.421L678.884,62.658Z" style="fill:rgb(157,156,156);fill-rule:nonzero;"/>
    </g>
    <g transform="matrix(4.16667,0,0,4.16667,0,967)">
        <path d="M704.168,43.352C699.83,43.352 692.558,41.702 692.558,30.649C692.558,28.88 692.796,26.868 693.327,24.121L697.808,0.568L703.183,0.568L698.643,24.496C698.105,27.155 697.896,28.88 697.896,30.649C697.896,35.905 700.155,38.349 705.008,38.349C710.496,38.349 717.871,31.833 719.514,23.112L723.839,0.568L729.205,0.568L723.405,30.965C722.717,34.652 722.183,38.274 721.821,41.727L721.749,42.427L716.602,42.427L717.558,36.155C713.936,40.599 708.914,43.352 704.168,43.352" style="fill:rgb(157,156,156);fill-rule:nonzero;"/>
    </g>
    <g transform="matrix(4.16667,0,0,4.16667,0,962.797)">
        <path d="M741.008,44.275C737.005,44.275 733.571,42.916 731.946,41.572L731.49,41.197L733.455,36.682L734.24,37.232C735.808,38.332 738.612,39.441 741.343,39.441C746.162,39.441 749.799,36.169 749.799,31.828C749.799,28.194 748.387,26.116 744.215,23.594C738.562,20.203 737.374,15.925 737.374,12.938C737.374,6.05 743.249,0.653 750.749,0.653C753.943,0.653 757.03,1.7 758.43,2.738L758.937,3.113L756.88,7.703L756.115,7.213C754.824,6.378 752.627,5.491 750.33,5.491C745.987,5.491 742.712,8.441 742.712,12.35C742.712,15.769 744.568,17.55 748.224,19.825C752.737,22.585 755.224,26.488 755.224,30.813C755.224,39.65 748.074,44.275 741.008,44.275" style="fill:rgb(157,156,156);fill-rule:nonzero;"/>
    </g>
    <g transform="matrix(4.16667,0,0,4.16667,0,927.784)">
        <path d="M773.662,52.678C767.762,52.678 765.662,48.503 765.662,44.594C765.662,42.316 765.94,39.985 766.597,36.8L770.872,14.647L764.75,14.647L765.618,9.982L771.834,9.982L773.137,2.797L778.962,0.653L777.203,9.982L787.443,9.982L786.565,14.647L776.231,14.647L771.99,37.263C771.522,39.778 771.168,41.9 771.168,44.425C771.168,46.757 772.2,47.844 774.415,47.844C775.447,47.844 776.603,47.8 777.393,47.482L778.35,47.091L778.868,51.738L778.306,51.957C777.115,52.413 775.418,52.678 773.662,52.678" style="fill:rgb(157,156,156);fill-rule:nonzero;"/>
    </g>
    <g transform="matrix(4.16667,0,0,4.16667,0,963.159)">
        <path d="M829.217,5.404C817.435,5.404 807.413,16.66 807.335,29.982C807.288,32.341 807.651,35.563 809.62,37.569C810.832,38.807 812.542,39.432 814.698,39.432C821.667,39.432 829.548,29.963 831.563,19.172L834.107,5.851C833.129,5.619 831.582,5.404 829.217,5.404M813.857,44.276C806.773,44.276 801.826,38.672 801.826,30.651C801.826,16.122 813.107,0.566 829.895,0.566C833.123,0.566 836.807,1.029 839.504,1.769L840.201,1.96L836.035,23.657C834.645,30.744 833.988,37.797 834.285,42.519L834.335,43.351L829.051,43.351L829.026,42.594C828.97,40.819 829.192,37.997 829.685,34.172C825.46,40.963 820.257,44.276 813.857,44.276" style="fill:rgb(157,156,156);fill-rule:nonzero;"/>
    </g>
    <g transform="matrix(4.16667,0,0,4.16667,0,967)">
        <path d="M857.497,43.352C853.16,43.352 845.885,41.702 845.885,30.649C845.885,28.908 846.122,26.896 846.657,24.121L851.147,0.568L856.516,0.568L851.972,24.499C851.438,27.149 851.232,28.874 851.232,30.649C851.232,35.905 853.491,38.349 858.335,38.349C863.828,38.349 871.207,31.833 872.853,23.112L877.169,0.568L882.535,0.568L876.732,30.965C876.041,34.696 875.507,38.318 875.15,41.727L875.078,42.427L869.941,42.427L870.882,36.168C867.272,40.605 862.253,43.352 857.497,43.352" style="fill:rgb(157,156,156);fill-rule:nonzero;"/>
    </g>
    <g transform="matrix(4.16667,0,0,4.16667,0,878.852)">
        <path d="M892.641,63.583L887.272,63.583L894.319,26.393L888.866,26.393L889.747,21.724L895.294,21.724L895.585,20.174C896.694,13.483 899.007,8.255 902.276,5.074C904.747,2.793 907.972,1.493 911.138,1.493C914.363,1.493 916.001,2.258 916.685,2.714L917.204,3.061L915.491,7.58L914.707,7.158C913.801,6.671 912.482,6.414 910.879,6.414C905.688,6.414 902.491,10.955 900.816,20.705L900.641,21.724L910.335,21.724L909.332,26.393L899.691,26.393L892.641,63.583Z" style="fill:rgb(157,156,156);fill-rule:nonzero;"/>
    </g>
    <g transform="matrix(4.16667,0,0,4.16667,0,900.896)">
        <path d="M935.631,9.852L935.553,9.852C933.491,9.852 931.997,8.111 931.997,5.711C932.106,3.289 933.816,1.492 935.966,1.492C938.156,1.492 939.684,3.227 939.684,5.711C939.453,8.218 937.825,9.852 935.631,9.852M928.478,58.293L923.097,58.293L931.125,16.433L936.497,16.433L936.319,17.361L928.478,58.293Z" style="fill:rgb(157,156,156);fill-rule:nonzero;"/>
    </g>
    <g transform="matrix(4.16667,0,0,4.16667,0,882.706)">
        <path d="M972.121,62.658L966.749,62.658L971.462,37.636C971.68,36.749 972.037,34.896 972.037,31.905C972.037,29.252 971.146,24.802 965.174,24.802C959.315,24.802 951.502,31.599 949.821,40.696L945.765,62.658L940.396,62.658L952.021,1.493L957.48,1.493L952.465,26.858C956.24,22.277 961.105,19.877 966.69,19.877C970.655,19.877 977.374,22.302 977.374,31.399C977.374,33.521 977.158,35.896 976.774,38.086L972.121,62.658Z" style="fill:rgb(157,156,156);fill-rule:nonzero;"/>
    </g>
    <g transform="matrix(4.16667,0,0,4.16667,0,959.308)">
        <path d="M989.064,44.274L983.692,44.274L989.08,16.149C989.899,11.542 990.571,7.149 991.08,3.099L991.164,2.414L996.214,2.414L996.077,3.314C995.927,4.311 995.786,5.314 995.649,6.333C995.549,7.046 995.449,7.767 995.343,8.508C998.233,4.005 1002.07,1.492 1006.22,1.492C1006.84,1.492 1007.74,1.574 1008.23,1.677L1008.98,1.833L1007.92,7.221L1007.15,7.067C1006.65,6.967 1006.09,6.918 1005.46,6.918C1000.97,6.918 994.705,13.961 992.883,24.074L989.064,44.274Z" style="fill:rgb(157,156,156);fill-rule:nonzero;"/>
    </g>
    <g transform="matrix(4.16667,0,0,4.16667,0,882.706)">
        <path d="M1053,62.658L1047.12,62.658L1036.02,41.611L1031.43,45.499L1028.26,62.658L1022.88,62.658L1034.52,1.493L1039.89,1.493L1032.86,38.499C1033.53,37.846 1034.2,37.224 1034.77,36.705L1051.99,20.799L1058.99,20.799L1040.08,38.283L1053,62.658Z" style="fill:rgb(157,156,156);fill-rule:nonzero;"/>
    </g>
    <g transform="matrix(4.16667,0,0,4.16667,0,900.896)">
        <path d="M1070.58,9.852L1070.5,9.852C1068.44,9.852 1066.94,8.111 1066.94,5.711C1067.06,3.289 1068.77,1.492 1070.91,1.492C1073.11,1.492 1074.64,3.227 1074.64,5.711C1074.41,8.218 1072.78,9.852 1070.58,9.852M1063.42,58.293L1058.05,58.293L1066.07,16.433L1071.44,16.433L1071.26,17.361L1063.42,58.293Z" style="fill:rgb(157,156,156);fill-rule:nonzero;"/>
    </g>
    <g transform="matrix(4.16667,0,0,4.16667,0,959.308)">
        <path d="M1107.08,44.274L1101.71,44.274L1106.48,18.964C1106.72,17.408 1106.99,15.639 1106.99,14.021C1106.99,8.905 1104.72,6.418 1100.05,6.418C1094.96,6.418 1086.54,12.314 1084.61,22.98L1080.72,44.274L1075.34,44.274L1081.06,13.877C1081.89,9.902 1082.39,6.374 1082.82,3.096L1082.91,2.414L1088.02,2.414L1087.07,8.955C1090.81,4.233 1096.06,1.492 1101.56,1.492C1106.57,1.492 1112.41,4.642 1112.41,13.521C1112.41,15.161 1112.17,17.233 1111.64,20.046L1107.08,44.274Z" style="fill:rgb(157,156,156);fill-rule:nonzero;"/>
    </g>
    <g transform="matrix(4.16667,0,0,4.16667,0,963.159)">
        <path d="M1140.58,5.404C1130.86,5.404 1124.32,16.416 1124.32,26.701C1124.32,34.197 1128.69,39.432 1134.95,39.432C1143.32,39.432 1151.14,29.085 1151.14,18.138C1151.14,13.41 1148.91,5.404 1140.58,5.404M1134.62,44.276L1134.53,44.276C1123.73,44.276 1118.81,35.338 1118.81,27.038C1118.81,14.254 1127.69,0.566 1140.92,0.566C1152.52,0.566 1156.64,10.079 1156.64,18.222C1156.64,28.872 1148.8,44.276 1134.62,44.276" style="fill:rgb(157,156,156);fill-rule:nonzero;"/>
    </g>
    <g transform="matrix(4.16667,0,0,4.16667,0,899.14)">
        <path d="M1168.82,43.855L1163.98,43.855L1171.64,0.567L1177.97,0.567L1168.82,43.855ZM1164.07,59.639L1163.99,59.639C1161.76,59.639 1160.02,57.674 1160.02,55.164C1160.02,52.561 1161.91,50.52 1164.33,50.52C1166.71,50.52 1168.38,52.361 1168.38,54.992C1168.38,57.642 1166.53,59.639 1164.07,59.639" style="fill:rgb(157,156,156);fill-rule:nonzero;"/>
    </g>
    <g transform="matrix(4.16667,0,0,4.16667,0,149.967)">
        <path d="M525.734,105.795L525.734,134.213L552.847,134.213L552.847,105.81C549.222,105.82 545.6,105.835 541.962,105.835C536.534,105.835 531.125,105.82 525.734,105.795" style="fill:rgb(157,156,156);fill-rule:nonzero;"/>
    </g>
    <g transform="matrix(4.16667,0,0,4.16667,0,137.9)">
        <path d="M652.251,137.108L679.36,137.108L679.36,105.796C670.398,106.183 661.363,106.537 652.251,106.846L652.251,137.108Z" style="fill:rgb(157,156,156);fill-rule:nonzero;"/>
    </g>
    <g transform="matrix(2.0875,3.60603,3.60603,-2.0875,1099.01,-1783.89)">
        <path d="M716.328,109.413L754.701,109.413L770.28,136.323L729.864,136.537C725.451,127.573 720.941,118.535 716.328,109.413" style="fill:rgb(157,156,156);fill-rule:nonzero;"/>
    </g>
    <g transform="matrix(4.16667,0,0,4.16667,0,53.2542)">
        <path d="M871.984,119.917C864.452,128.049 854.696,132.114 842.709,132.114C830.596,132.114 820.771,128.049 813.24,119.917C812.443,119.058 811.709,118.155 810.99,117.246C801.284,118.152 791.409,119.008 781.409,119.817C783.409,124.405 787.512,131.242 794.271,137.946C807.29,150.858 823.337,157.417 842.618,157.417C861.893,157.417 878.009,150.942 890.959,137.992C900.102,128.849 906.062,118.096 908.752,105.802C899.09,107.192 889.053,108.533 878.921,109.814C877.149,113.464 874.834,116.836 871.984,119.917" style="fill:rgb(157,156,156);fill-rule:nonzero;"/>
    </g>
    <g transform="matrix(4.16667,0,0,4.16667,0,-70.4958)">
        <path d="M1013.65,105.797L1013.65,131.097L1013.63,131.007L1013.63,154.232C1008.39,158.088 1000.88,160.016 991.121,160.016C978.949,160.016 969.137,156.31 961.662,148.903C956.265,143.541 952.827,136.813 951.302,128.75C942.618,130.263 933.662,131.728 924.496,133.141C926.943,146.478 933.018,157.982 942.734,167.653C955.715,180.575 971.781,187.066 990.943,187.122C1010.34,187.122 1026.94,181.103 1040.74,169.05L1040.74,105.797L1013.65,105.797Z" style="fill:rgb(157,156,156);fill-rule:nonzero;"/>
    </g>
    <g transform="matrix(4.16667,0,0,4.16667,0,0)">
        <g opacity="0.3">
            <g transform="matrix(1,0,0,1,0,15.6)">
                <path d="M195.809,154.589L222.827,154.589L222.827,109.167C213.643,108.089 204.64,106.97 195.809,105.811L195.809,154.589Z" style="fill:white;fill-rule:nonzero;"/>
            </g>
            <g transform="matrix(1,0,0,1,0,21.953)">
                <path d="M250.026,148.236L277.132,148.236L277.132,108.455C267.957,107.611 258.92,106.73 250.026,105.811L250.026,148.236Z" style="fill:white;fill-rule:nonzero;"/>
            </g>
            <g transform="matrix(1,0,0,1,0,28.525)">
                <path d="M361.177,141.664L371.121,141.664L371.121,108.705C355.581,107.852 340.296,106.886 325.324,105.811L361.177,141.664Z" style="fill:white;fill-rule:nonzero;"/>
            </g>
            <g transform="matrix(1,0,0,1,0,32.809)">
                <path d="M425.973,106.918C416.854,106.593 407.819,106.218 398.86,105.811L398.86,137.38L498.26,137.38L498.26,112.077L425.973,112.077L425.973,106.918Z" style="fill:white;fill-rule:nonzero;"/>
            </g>
            <g transform="matrix(1,0,0,1,0,8.7198)">
                <path d="M102.555,155.146C84.167,155.146 69.323,149.546 58.039,138.352C46.748,127.152 41.058,112.037 40.967,93.012C40.967,89.874 41.077,87.012 41.417,83.84C26.805,79.758 13.764,75.596 2.195,71.162C0.773,78.212 0.027,85.574 0.002,93.287C0.002,122.687 9.811,147.158 29.427,166.69C49.045,186.212 73.336,196.018 102.283,196.118C131.595,196.118 156.677,187.012 177.53,168.802L150.214,138.899C136.836,149.733 120.942,155.146 102.555,155.146" style="fill:white;fill-rule:nonzero;"/>
            </g>
            <g transform="matrix(0.737596,-0.675242,-0.675242,-0.737596,133.578,301.466)">
                <path d="M88.487,145.915C98.894,136.388 113.945,135.132 125.579,141.777C111.76,159.647 99.355,176.655 88.487,192.621C87.81,192.002 87.14,191.358 86.507,190.667C74.697,177.765 75.583,157.728 88.487,145.915" style="fill:white;fill-rule:nonzero;"/>
            </g>
        </g>
    </g>
</svg>
